<svg width="32" height="27" viewBox="0 0 32 27" fill="none" xmlns="http://www.w3.org/2000/svg">
<path d="M26.5956 2.64221C24.6197 1.66973 22.507 0.962978 20.2981 0.560547C20.027 1.07645 19.71 1.77035 19.4916 2.32235C17.1435 1.9509 14.8171 1.9509 12.5122 2.32235C12.2938 1.77035 11.9697 1.07645 11.696 0.560547C9.48481 0.962978 7.36964 1.67233 5.39374 2.64735C1.40834 8.98249 0.327958 15.1603 0.868148 21.2504C3.51148 23.3267 6.07318 24.5882 8.59167 25.4136C9.2135 24.5133 9.76807 23.5564 10.2458 22.5479C9.33592 22.1841 8.46443 21.7353 7.64095 21.2142C7.85941 21.044 8.0731 20.8659 8.27955 20.6829C13.3021 23.1539 18.7593 23.1539 23.7218 20.6829C23.9307 20.8659 24.1444 21.044 24.3605 21.2142C23.5345 21.7379 22.6606 22.1866 21.7508 22.5504C22.2284 23.5564 22.7807 24.516 23.4048 25.4162C25.9258 24.5907 28.4898 23.3294 31.1332 21.2504C31.7671 14.1904 30.0504 8.06935 26.5956 2.64221ZM10.9301 17.505C9.42237 17.505 8.18591 16.0244 8.18591 14.2213C8.18591 12.4183 9.39596 10.9351 10.9301 10.9351C12.4643 10.9351 13.7007 12.4157 13.6743 14.2213C13.6767 16.0244 12.4643 17.505 10.9301 17.505ZM21.0712 17.505C19.5635 17.505 18.3271 16.0244 18.3271 14.2213C18.3271 12.4183 19.5371 10.9351 21.0712 10.9351C22.6053 10.9351 23.8419 12.4157 23.8155 14.2213C23.8155 16.0244 22.6053 17.505 21.0712 17.505Z" fill="white"/>
</svg>
