<svg width="28" height="29" viewBox="0 0 28 29" fill="none" xmlns="http://www.w3.org/2000/svg">
<path d="M20.3483 16.5835C20.3 16.5358 20.2276 16.5358 20.1552 16.5597L19.9863 16.6311C19.1656 17.0359 18.2483 17.2263 17.331 17.2263C17.2827 17.2263 17.2586 17.2502 17.2586 17.274C17.162 17.7026 16.8 18.0121 16.3414 18.0121H14.4586V16.4644H14.4827C14.6034 16.4883 14.7 16.4883 14.8207 16.5121C15.6173 16.6311 16.0034 16.9882 16.1724 17.1549L16.1966 17.1788C16.2207 17.2026 16.269 17.2026 16.2931 17.1788C16.3173 17.1549 16.3414 17.1312 16.3897 17.1073C16.6793 16.9168 17.3552 16.5121 17.3552 14.3693C17.3552 12.1788 15.6656 10.7026 15.4724 10.6073L14.4827 10.5359H14.4586V9.91686C14.6517 9.79781 14.7966 9.58352 14.7966 9.32161C14.7966 8.94066 14.5069 8.63114 14.1207 8.63114C13.7345 8.63114 13.4448 8.94066 13.4448 9.32161C13.4448 9.55972 13.5655 9.774 13.7828 9.89305V10.4169L12.3586 10.274C12.2862 10.274 12.2379 10.3454 12.2862 10.3931C12.5276 10.774 13.1793 11.9645 13.2276 13.7502C13.2759 15.4169 13.0103 16.2026 12.8897 16.4883C12.8655 16.5121 12.8655 16.5358 12.8897 16.5597C12.9138 16.5835 12.9379 16.5835 12.9621 16.5835C13.131 16.5597 13.4207 16.5121 13.7828 16.4883V18.0358H12.2138C11.7069 18.0358 11.2724 17.6073 11.2724 17.1073V16.7264C11.2724 16.6788 11.2483 16.6549 11.2 16.6549H8.27931C8.25517 16.6549 8.2069 16.6788 8.2069 16.7264C8.2069 16.7978 8.2069 16.8692 8.2069 16.9406C8.2069 18.0121 8.52069 18.9883 9.05173 19.8454C9.14827 19.9882 9.31724 20.0598 9.46207 19.9882L9.77586 19.8454C10.0172 19.7264 10.3069 19.7264 10.5724 19.8454L10.9103 19.9882C11.1517 20.1073 11.4414 20.1073 11.7069 19.9882L12.0448 19.8454C12.3103 19.7264 12.5759 19.7264 12.8414 19.8454L13.1793 19.9882C13.4448 20.1073 13.7103 20.1073 13.9759 19.9882L14.3137 19.8454C14.5793 19.7264 14.8448 19.7264 15.1103 19.8454L15.4483 19.9882C15.7137 20.1073 15.9793 20.1073 16.2448 19.9882L16.5827 19.8454C16.8483 19.7264 17.1137 19.7264 17.3793 19.8454L17.7173 19.9882C17.9344 20.0835 18.1759 19.9645 18.2966 19.7501C18.4897 19.4407 18.6586 19.0836 18.7793 18.7502C19.0448 17.9644 19.5276 17.2263 20.2759 16.8692C20.3483 16.8455 20.3724 16.7741 20.3724 16.7025C20.4207 16.6788 20.3966 16.6074 20.3483 16.5835ZM9.58276 16.0597H12.3345C12.3828 16.0597 12.4069 16.0359 12.4069 15.9883V13.0359C12.4069 13.0121 12.3828 12.9883 12.3586 12.9645L11.0069 12.3454C10.9828 12.3216 10.9345 12.3454 10.9103 12.393L9.51034 15.9407C9.4862 16.012 9.53449 16.0597 9.58276 16.0597ZM14 0.988281C6.27586 0.988281 0 7.17876 0 14.7978C0 22.4169 6.27586 28.6073 14 28.6073C21.7241 28.6073 28 22.4169 28 14.7978C28 7.17876 21.7241 0.988281 14 0.988281ZM13.9517 24.8454C8.37586 24.8454 3.86207 20.393 3.86207 14.8692C3.86207 9.36924 8.37586 4.89305 13.9517 4.89305C19.5276 4.89305 24.0414 9.36924 24.0414 14.8692C24.0173 20.393 19.5034 24.8454 13.9517 24.8454ZM20.1552 16.5597L19.9863 16.6311C19.1656 17.0359 18.2483 17.2263 17.331 17.2263C17.2827 17.2263 17.2586 17.2502 17.2586 17.274C17.162 17.7026 16.8 18.0121 16.3414 18.0121H14.4586V16.4644H14.4827C14.6034 16.4883 14.7 16.4883 14.8207 16.5121C15.6173 16.6311 16.0034 16.9882 16.1724 17.1549L16.1966 17.1788C16.2207 17.2026 16.269 17.2026 16.2931 17.1788C16.3173 17.1549 16.3414 17.1312 16.3897 17.1073C16.6793 16.9168 17.3552 16.5121 17.3552 14.3693C17.3552 12.1788 15.6656 10.7026 15.4724 10.6073L14.4827 10.5359H14.4586V9.91686C14.6517 9.79781 14.7966 9.58352 14.7966 9.32161C14.7966 8.94066 14.5069 8.63114 14.1207 8.63114C13.7345 8.63114 13.4448 8.94066 13.4448 9.32161C13.4448 9.55972 13.5655 9.774 13.7828 9.89305V10.4169L12.3586 10.274C12.2862 10.274 12.2379 10.3454 12.2862 10.3931C12.5276 10.774 13.1793 11.9645 13.2276 13.7502C13.2759 15.4169 13.0103 16.2026 12.8897 16.4883C12.8655 16.5121 12.8655 16.5358 12.8897 16.5597C12.9138 16.5835 12.9379 16.5835 12.9621 16.5835C13.131 16.5597 13.4207 16.5121 13.7828 16.4883V18.0358H12.2138C11.7069 18.0358 11.2724 17.6073 11.2724 17.1073V16.7264C11.2724 16.6788 11.2483 16.6549 11.2 16.6549H8.27931C8.25517 16.6549 8.2069 16.6788 8.2069 16.7264C8.2069 16.7978 8.2069 16.8692 8.2069 16.9406C8.2069 18.0121 8.52069 18.9883 9.05173 19.8454C9.14827 19.9882 9.31724 20.0598 9.46207 19.9882L9.77586 19.8454C10.0172 19.7264 10.3069 19.7264 10.5724 19.8454L10.9103 19.9882C11.1517 20.1073 11.4414 20.1073 11.7069 19.9882L12.0448 19.8454C12.3103 19.7264 12.5759 19.7264 12.8414 19.8454L13.1793 19.9882C13.4448 20.1073 13.7103 20.1073 13.9759 19.9882L14.3137 19.8454C14.5793 19.7264 14.8448 19.7264 15.1103 19.8454L15.4483 19.9882C15.7137 20.1073 15.9793 20.1073 16.2448 19.9882L16.5827 19.8454C16.8483 19.7264 17.1137 19.7264 17.3793 19.8454L17.7173 19.9882C17.9344 20.0835 18.1759 19.9645 18.2966 19.7501C18.4897 19.4407 18.6586 19.0836 18.7793 18.7502C19.0448 17.9644 19.5276 17.2263 20.2759 16.8692C20.3483 16.8455 20.3724 16.7741 20.3724 16.7025C20.3724 16.6549 20.3483 16.5835 20.3 16.5597C20.3 16.5597 20.2276 16.5358 20.1552 16.5597ZM9.58276 16.0597H12.3345C12.3828 16.0597 12.4069 16.0359 12.4069 15.9883V13.0359C12.4069 13.0121 12.3828 12.9883 12.3586 12.9645L11.0069 12.3454C10.9828 12.3216 10.9345 12.3454 10.9103 12.393L9.51034 15.9407C9.4862 16.012 9.53449 16.0597 9.58276 16.0597Z" fill="white"/>
<path d="M12.3575 12.9895L11.0058 12.3704C10.9817 12.3466 10.9334 12.3704 10.9093 12.418L9.50925 15.9656C9.48512 16.0133 9.53339 16.0609 9.58167 16.0609H12.3334C12.3817 16.0609 12.4058 16.037 12.4058 15.9895V13.0371C12.4058 13.0133 12.3817 12.9895 12.3575 12.9895ZM20.3471 16.5847C20.299 16.5371 20.2264 16.5371 20.1541 16.561L19.9851 16.6323C19.1644 17.0371 18.2471 17.2275 17.33 17.2275C17.2817 17.2275 17.2575 17.2514 17.2575 17.2752C17.161 17.7037 16.799 18.0133 16.3403 18.0133H14.4575V16.4657H14.4817C14.6024 16.4894 14.699 16.4894 14.8196 16.5133C15.6161 16.6323 16.0024 16.9895 16.1713 17.1561L16.1954 17.1799C16.2196 17.2038 16.2678 17.2038 16.292 17.1799C16.3161 17.1561 16.3403 17.1323 16.3886 17.1085C16.6783 16.9181 17.3541 16.5133 17.3541 14.3703C17.3541 12.1799 15.6644 10.7038 15.4713 10.6085L14.4817 10.5371H14.4575V9.91803C14.6507 9.79898 14.7954 9.5847 14.7954 9.3228C14.7954 8.94184 14.5058 8.63232 14.1196 8.63232C13.7334 8.63232 13.4437 8.94184 13.4437 9.3228C13.4437 9.56089 13.5644 9.77517 13.7817 9.89423V10.418L12.3575 10.2752C12.2851 10.2752 12.2368 10.3466 12.2851 10.3942C12.5265 10.7752 13.1782 11.9657 13.2265 13.7514C13.2748 15.4181 13.0093 16.2037 12.8886 16.4894C12.8644 16.5133 12.8644 16.5371 12.8886 16.561C12.9127 16.5847 12.9368 16.5847 12.961 16.5847C13.1299 16.561 13.4196 16.5133 13.7817 16.4894V18.0371H12.2127C11.7058 18.0371 11.2713 17.6085 11.2713 17.1085V16.7275C11.2713 16.68 11.2472 16.6561 11.1989 16.6561H8.27822C8.25408 16.6561 8.20581 16.68 8.20581 16.7275C8.20581 16.799 8.20581 16.8704 8.20581 16.9418C8.20581 18.0133 8.51961 18.9895 9.05064 19.8467C9.14718 19.9894 9.31615 20.0608 9.46098 19.9894L9.77478 19.8467C10.0162 19.7276 10.3058 19.7276 10.5713 19.8467L10.9093 19.9894C11.1506 20.1085 11.4403 20.1085 11.7058 19.9894L12.0437 19.8467C12.3093 19.7276 12.5748 19.7276 12.8403 19.8467L13.1782 19.9894C13.4437 20.1085 13.7093 20.1085 13.9748 19.9894L14.3127 19.8467C14.5783 19.7276 14.8437 19.7276 15.1093 19.8467L15.4471 19.9894C15.7127 20.1085 15.9783 20.1085 16.2437 19.9894L16.5817 19.8467C16.8471 19.7276 17.1127 19.7276 17.3783 19.8467L17.7161 19.9894C17.9334 20.0847 18.1747 19.9657 18.2954 19.7514C18.4886 19.4419 18.6575 19.0846 18.7783 18.7514C19.0437 17.9657 19.5264 17.2275 20.2747 16.8704C20.3471 16.8467 20.3713 16.7751 20.3713 16.7037C20.4196 16.68 20.3954 16.6085 20.3471 16.5847Z" fill="white"/>
</svg>
